<svg width="865" height="459" viewBox="0 0 865 453" xmlns="http://www.w3.org/2000/svg" xmlns:xlink="http://www.w3.org/1999/xlink"><defs><path id="a" d="M0 458.9h864.102V.566H0z"/><path d="M23.508 5.82a11.018 11.018 0 0 0 0 11.656l8.305 13.329v34.95L19.29 53.238l-2.605-11.225a8.441 8.441 0 0 0-6.311-6.306C4.293 34.291-1.163 39.75.252 45.834a8.432 8.432 0 0 0 6.306 6.304l11.28 2.62 13.975 13.976v14.359h.024V95.42h2.106V57.485l10.895-10.893 15.436-3.588a11.103 11.103 0 0 0 8.296-8.292c1.86-8.001-5.318-15.179-13.317-13.319a11.098 11.098 0 0 0-8.296 8.297L43.38 45.069l-9.462 9.464V30.807l8.302-13.331a11.018 11.018 0 0 0 0-11.656C40.064 2.355 36.465.623 32.865.623c-3.6 0-7.2 1.732-9.357 5.197z" id="c"/><path d="M.293.311v21.196c0 10.064 8.157 18.22 18.219 18.22H31.61c10.06 0 18.218-8.156 18.218-18.22V.31H.293z" id="e"/></defs><g fill="none" fill-rule="evenodd"><path fill="#374460" d="M574.48 291.74l-39.372 165.908h5.533l48.15-165.907zM639.14 291.74l48.151 165.908h5.532L653.45 291.741z"/><g transform="translate(0 -.465)"><path d="M532.878 268.542c0 44.781 36.303 81.086 81.087 81.086 44.785 0 81.088-36.305 81.088-81.086 0-44.782-36.303-81.087-81.088-81.087-44.784 0-81.087 36.305-81.087 81.087" fill="#0884C6"/><path d="M673.462 299.673c0 23.124-26.372 41.869-58.907 41.869-32.534 0-58.908-18.745-58.908-41.869 0-23.119 26.374-29.145 58.908-29.145 32.535 0 58.907 6.026 58.907 29.145" fill="#0472AF"/><path d="M587.1 95.18l11.25.906a7.967 7.967 0 0 0 1.279-15.882l-11.25-.906A7.967 7.967 0 1 0 587.1 95.18" fill="#343854"/><path d="M538.082 236.591a5.48 5.48 0 1 0-9.88-4.734 5.48 5.48 0 0 0 9.88 4.734" fill="#FF907A"/><path d="M546.836 230.308l-.002.007c.82.096 1.639.32 2.425.697a7.67 7.67 0 1 1-6.627 13.834l-11.86-5.682 3.004-10.384 13.06 1.528z" fill="#FF907A"/><path d="M574.011 290.172c0 5.292 1.03 10.333 2.893 14.956h74.12a39.921 39.921 0 0 0 2.892-14.956c0-22.07-17.884-39.952-39.953-39.952-22.057 0-39.952 17.883-39.952 39.952" fill="#1789CA"/><path d="M603.007 290.172c0 6.051 4.906 10.957 10.958 10.957 6.053 0 10.958-4.906 10.958-10.957 0-6.052-4.905-10.958-10.958-10.958-6.052 0-10.958 4.906-10.958 10.958" fill="#1789CA"/><path fill="#FFC371" d="M594.602 206.136l-63.42 33.731-16.458-24.788 55.746-45.289z"/><path d="M564.961 197.078c5.684 10.686 18.955 14.741 29.641 9.057 10.687-5.684 14.742-18.954 9.058-29.64-5.685-10.686-18.956-14.741-29.642-9.057-10.686 5.684-14.74 18.954-9.057 29.64M635.58 199.63l54.626 46.07 19.236-22.7-50.087-51.481z" fill="#00518B"/><path d="M661.645 199.264c-6.892 9.95-20.544 12.43-30.494 5.539s-12.431-20.544-5.54-30.493c6.892-9.95 20.544-12.431 30.495-5.54 9.95 6.892 12.43 20.544 5.539 30.494" fill="#00518B"/><path d="M623.282 305.128c0 8.261 6.696 14.958 14.958 14.958 8.26 0 14.957-6.697 14.957-14.958 0-8.26-6.697-14.958-14.957-14.958-8.262 0-14.958 6.698-14.958 14.958M589.712 290.17c-8.262 0-14.958 6.698-14.958 14.958 0 8.262 6.696 14.958 14.958 14.958 8.26 0 14.957-6.696 14.957-14.958 0-8.26-6.697-14.957-14.957-14.957" fill="#1789CA"/><path d="M568.655 180.964l5.358 109.207h79.905l5.358-109.207c.429-8.757-6.554-16.092-15.323-16.092h-59.974c-8.77 0-15.753 7.335-15.324 16.092" fill="#00518B"/><path d="M574.014 290.172l.734 14.956.035.734c.392 7.966 6.964 14.224 14.94 14.224h48.485c7.976 0 14.55-6.258 14.94-14.225l.035-.733.734-14.956h-79.903z" fill="#FFF"/><path d="M574.666 447.155a9.248 9.248 0 0 0 9.248 9.248c5.107 0 9.248-4.14 9.248-9.248a9.247 9.247 0 0 0-9.248-9.247 9.247 9.247 0 0 0-9.248 9.247" fill="#1789CA"/><path d="M574.652 307.632c0 6.998 5.673 12.673 12.673 12.673 6.999 0 12.673-5.675 12.673-12.673 0-6.999-5.674-12.673-12.673-12.673-7 0-12.673 5.674-12.673 12.673" fill="#FFF"/><path fill="#FFF" d="M593.149 447.155l6.85-139.523h-25.347v139.523z"/><path d="M565.35 458.113h27.812v-10.958h-18.507l-10.62 5.793a2.75 2.75 0 0 0 1.316 5.165" fill="#374460"/><path d="M522.8 318.757c-4.811 1.714-7.324 7.003-5.611 11.814s7.003 7.325 11.815 5.611a9.248 9.248 0 0 0-6.204-17.425" fill="#1789CA"/><path d="M654.241 271.95c-6.593 2.348-10.035 9.596-7.688 16.19 2.346 6.593 9.594 10.035 16.19 7.688 6.593-2.348 10.035-9.596 7.688-16.19-2.348-6.593-9.597-10.035-16.19-7.688" fill="#FFF"/><path fill="#FFF" d="M529 336.17l133.742-40.342-8.5-23.877-131.446 46.794z"/><path d="M521.805 348.632l-9.329-26.2 10.324-3.674 6.207 17.435-1.895 11.949a2.75 2.75 0 0 1-5.307.49" fill="#374460"/><path fill="#F7A894" d="M598.65 165.664L626 164.08l-1.718-29.634-27.348 1.583z"/><path d="M598.65 165.664c.437 7.551 6.915 13.32 14.468 12.881 7.551-.437 13.32-6.913 12.882-14.466-.438-7.552-6.915-13.319-14.467-12.882-7.552.438-13.32 6.915-12.883 14.467" fill="#F7A894"/><path fill="#FFF" d="M649.841 314.57l18.468-22.666-18.28-17.452-21.775 19.542z"/><path d="M683.627 229.718c-1.811 8.054 3.25 16.052 11.303 17.862 8.055 1.812 16.051-3.25 17.863-11.303 1.81-8.053-3.25-16.05-11.305-17.862-8.053-1.81-16.05 3.25-17.86 11.303" fill="#00518B"/><path d="M582.34 114.22l3.971.32 2.158-26.8-3.97-.321c-7.401-.597-13.884 4.92-14.48 12.322-.596 7.4 4.92 13.884 12.321 14.479M612.944 142.168l7.917.638c6.593.53 12.368-4.382 12.898-10.975l.713-8.863-19.854-1.599-1.674 20.8z" fill="#343854"/><path d="M587.26 113.92l8.598.693 2.778-34.49-7.225-.58c-7.91-.638-14.84 5.257-15.478 13.169l-.581 7.214c-.577 7.153 4.755 13.418 11.908 13.994" fill="#343854"/><path d="M585.82 150.138l35.245 2.838 3.197-39.686c.97-12.073-8.026-22.647-20.1-23.619-11.66-.94-22.006 7.44-23.507 19.043l-3.912 30.219c-.73 5.642 3.406 10.748 9.077 11.205" fill="#F7A894"/><path d="M614.414 86.738l-3.01 37.369 22.83 1.839 1.17-14.542c1.015-12.607-8.382-23.65-20.99-24.666" fill="#343854"/><path d="M623.016 128.79l-5.956-.482.48-5.955a5.975 5.975 0 0 1 6.436-5.475 5.975 5.975 0 1 1-.96 11.911" fill="#F7A894"/><path d="M578.022 102.443l22.612 1.82c9.217.743 17.318-6.151 18.06-15.366a7.967 7.967 0 0 0-15.883-1.279.836.836 0 0 1-.898.765l-22.612-1.823-1.279 15.883z" fill="#343854"/><path d="M590.464 228.727a8.766 8.766 0 1 1 3.196 11.977 8.765 8.765 0 0 1-3.196-11.977" fill="#F7A894"/><path d="M602.325 235.606a6.574 6.574 0 1 0 11.381 6.585 6.575 6.575 0 0 0-11.381-6.585" fill="#F7A894"/><path fill="#F7A894" d="M595.966 241.634l14.887 3.651 4.857-12.077-13.268-7.679z"/><path fill="#00518B" d="M698.027 219.081l-84.253 13.052.24 13.29 4.443.128 6.562.186 75.198 2.164z"/><path d="M626.481 123.066a2.729 2.729 0 1 1-5.457-.001 2.729 2.729 0 0 1 5.457 0" fill="#FFF"/><path d="M618.816 130.649a1.259 1.259 0 0 1-.34-1.741l4.047-6.02a1.258 1.258 0 0 1 1.74-.34c.573.384.725 1.168.341 1.74l-4.048 6.018a1.256 1.256 0 0 1-1.74.343" fill="#FFF"/><path d="M593.658 150.852c-.094 13.577-.759 33.317-3.889 48.002M620.067 128.483s-30.144 44.641-36.824 104.93" stroke="#FFF" stroke-width="1.202"/><mask id="b" fill="#fff"><use xlink:href="#a"/></mask><path fill="#AEAFB6" mask="url(#b)" d="M588.582 246.15h52.598v-6.574h-52.598z"/><path d="M592.834 246.152H491.516a4.061 4.061 0 0 1-4.057-3.873l-.587-12.64-2.542-54.537a3.832 3.832 0 0 1 3.83-4.01h97.52a3.833 3.833 0 0 1 3.83 3.654l2.568 55.134.756 16.272z" fill="#BFBFC5" mask="url(#b)"/><path d="M530.816 208.621c.198 4.236 3.793 7.67 8.029 7.67 4.237 0 7.51-3.434 7.312-7.67-.197-4.237-3.79-7.671-8.027-7.671-4.237 0-7.51 3.434-7.314 7.671" fill="#FFF" mask="url(#b)"/><path d="M663.923 82.398h195.885a4.293 4.293 0 0 0 4.293-4.293v-3.73a4.293 4.293 0 0 0-4.293-4.293H663.923a4.293 4.293 0 0 0-4.293 4.293v3.73a4.293 4.293 0 0 0 4.293 4.293" fill="#D4EBF4" mask="url(#b)"/><path fill="#D4EBF4" mask="url(#b)" d="M693.038 70.082h12.693V.566h-12.693z"/><path fill="#FFF" mask="url(#b)" d="M679.26 70.082h13.793V2.617H679.26zM705.526 69.987h14.695V7.491h-14.695z"/><path fill="#D4EBF4" mask="url(#b)" d="M746.869 69.904l9.777-4.834-25.453-49.763-9.776 4.832z"/><path fill="#0884C6" mask="url(#b)" d="M26.232 247.31l-1.054 11.005L5.07 458.9H.001l15.121-211.59zM823.376 246.619l.934 10.04 20.31 200.56h5.072l-15.207-210.6z"/><path fill="#FFF" mask="url(#b)" d="M4.697 256.66h839.601v-11.005H4.697z"/><path d="M387.49 239.657a7.046 7.046 0 0 1-6.94-5.832l-3.244-18.526-.402-2.29-2.233-12.768-.058-.314h-63.8l-.058.314-3.643 20.805-.418 2.391-1.82 10.39a7.048 7.048 0 0 1-6.941 5.83 2.261 2.261 0 0 0-2.262 2.262v.232a2.493 2.493 0 0 0 2.494 2.493H387.256a2.493 2.493 0 0 0 2.494-2.493v-.234a2.26 2.26 0 0 0-2.26-2.26" fill="#D4EBF4" mask="url(#b)"/><path d="M452.847 217.14H232.575a7.83 7.83 0 0 1-7.83-7.83V59.452a7.83 7.83 0 0 1 7.83-7.83h220.272a7.829 7.829 0 0 1 7.829 7.83V209.31a7.83 7.83 0 0 1-7.83 7.83" fill="#D4EBF4" mask="url(#b)"/><path fill="#F8FCFF" mask="url(#b)" d="M232.575 183.238h220.272V61.402H232.575z"/><path d="M394.243 151.81h-37.371a2.437 2.437 0 1 1 0-4.876h37.37a2.437 2.437 0 1 1 0 4.875" fill="#D1E7F2" mask="url(#b)"/><path d="M424.466 151.81h-21.123a2.437 2.437 0 1 1 0-4.876h21.123a2.437 2.437 0 0 1 0 4.875" fill="#A0D1EA" mask="url(#b)"/><path d="M402.356 169.236l-34.123-.16a2.437 2.437 0 1 1 .024-4.876l34.122.162a2.438 2.438 0 0 1-.023 4.874M311.688 134.2l-34.12-.161a2.437 2.437 0 1 1 .022-4.875l34.121.161a2.437 2.437 0 1 1-.023 4.874M311.688 100.08l-34.12-.163a2.436 2.436 0 1 1 .022-4.875l34.121.162a2.437 2.437 0 1 1-.023 4.875M393.918 81.942h-37.372a2.437 2.437 0 1 1 0-4.875h37.372a2.438 2.438 0 0 1 0 4.875M402.03 100.345l-34.121-.161a2.437 2.437 0 0 1 .023-4.875l34.121.162a2.438 2.438 0 1 1-.023 4.874" fill="#D1E7F2" mask="url(#b)"/><path d="M207.49 138.178l-.533.512.532-.512z" fill="#FF95A9" mask="url(#b)"/><path d="M217.503 166.06h-.002.002z" fill="#40327A" mask="url(#b)"/><path d="M297.401 81.942h-50.37a2.437 2.437 0 1 1 0-4.875h50.37a2.437 2.437 0 1 1 0 4.875M424.14 81.942h-21.122a2.437 2.437 0 1 1 0-4.875h21.122a2.437 2.437 0 1 1 0 4.875" fill="#D1E7F2" mask="url(#b)"/><path d="M268.143 99.873l-21.123-.101a2.437 2.437 0 1 1 .023-4.874l21.123.1a2.438 2.438 0 0 1-.023 4.875" fill="#A0D1EA" mask="url(#b)"/><path d="M268.143 133.993l-21.123-.1a2.437 2.437 0 1 1 .023-4.874l21.123.1a2.438 2.438 0 0 1-.023 4.874M345.822 81.942H308.45a2.437 2.437 0 1 1 0-4.875h37.372a2.438 2.438 0 0 1 0 4.875" fill="#D1E7F2" mask="url(#b)"/><path d="M357.184 100.132l-34.121-.16a2.437 2.437 0 1 1 .023-4.876l34.121.162a2.437 2.437 0 1 1-.023 4.874" fill="#A0D1EA" mask="url(#b)"/><path d="M255.155 116.713h-8.124a2.438 2.438 0 0 1 0-4.875h8.124a2.437 2.437 0 1 1 0 4.875" fill="#1C1742" mask="url(#b)"/><path d="M325.35 116.713h-17.874a2.438 2.438 0 0 1 0-4.875h17.873a2.438 2.438 0 0 1 0 4.875M338.673 134.26H320.8a2.437 2.437 0 1 1 0-4.875h17.873a2.437 2.437 0 0 1 0 4.876" fill="#D1E7F2" mask="url(#b)"/><path d="M356.221 134.26h-8.125a2.437 2.437 0 0 1 0-4.875h8.125a2.438 2.438 0 0 1 0 4.876" fill="#A0D1EA" mask="url(#b)"/><path d="M375.72 134.26h-8.125a2.438 2.438 0 0 1 0-4.875h8.125a2.438 2.438 0 0 1 0 4.876M354.596 116.713h-17.873a2.438 2.438 0 0 1 0-4.875h17.873a2.437 2.437 0 1 1 0 4.875" fill="#D1E7F2" mask="url(#b)"/><path d="M297.727 151.81h-50.372a2.438 2.438 0 0 1 0-4.876h50.372a2.438 2.438 0 0 1 0 4.875" fill="#A0D1EA" mask="url(#b)"/><path d="M346.147 151.81h-37.371a2.437 2.437 0 1 1 0-4.876h37.37a2.437 2.437 0 1 1 0 4.875M268.143 168.764l-21.123-.1a2.437 2.437 0 0 1 .023-4.875l21.123.1a2.438 2.438 0 0 1-.023 4.875M312.013 168.97l-34.121-.161a2.436 2.436 0 1 1 .024-4.874l34.12.16a2.437 2.437 0 1 1-.023 4.875" fill="#D1E7F2" mask="url(#b)"/><path d="M357.51 169.025l-34.122-.162a2.437 2.437 0 1 1 .024-4.875l34.121.161a2.438 2.438 0 0 1-.023 4.876" fill="#A0D1EA" mask="url(#b)"/><path d="M437.63 116.834h-31.472a4.18 4.18 0 0 1-4.18-4.18V95.893a4.18 4.18 0 0 1 4.18-4.181h31.472a4.18 4.18 0 0 1 4.18 4.18v16.762a4.18 4.18 0 0 1-4.18 4.18" fill="#00518A" mask="url(#b)"/><path d="M407.873 104.483c.335.207.596.44.785.697.188.256.32.583.395.981.076.4.114.91.114 1.531 0 .467.01.81.031 1.032.022.223.064.39.127.506.065.115.14.19.23.226.09.035.243.07.46.101a.665.665 0 0 1 .446.263c.117.15.177.35.177.595 0 .569-.348.855-1.04.855a2.41 2.41 0 0 1-1.15-.27 1.892 1.892 0 0 1-.78-.76 2.306 2.306 0 0 1-.282-1.127c-.015-.715-.03-1.291-.043-1.725-.014-.433-.037-.714-.064-.841-.07-.315-.175-.554-.315-.714-.138-.16-.32-.31-.543-.45-.224-.138-.383-.263-.478-.373-.095-.11-.142-.287-.142-.527 0-.349.138-.61.41-.786.34-.21.582-.391.725-.54a1.24 1.24 0 0 0 .304-.573c.06-.232.093-.487.103-.763.009-.276.023-.939.043-1.99.013-.65.22-1.17.617-1.559.398-.388.93-.583 1.595-.583.692 0 1.04.28 1.04.842 0 .254-.059.454-.174.6a.656.656 0 0 1-.45.255c-.273.037-.464.094-.571.17-.11.075-.18.222-.213.438s-.054.636-.063 1.257c-.01.609-.046 1.107-.11 1.497-.063.387-.189.72-.375.992-.186.273-.455.522-.809.743M435.105 103.78a2.454 2.454 0 0 1-.374-.994 10.307 10.307 0 0 1-.109-1.496c-.01-.622-.032-1.041-.063-1.258-.034-.217-.105-.362-.213-.438-.109-.076-.3-.132-.573-.17a.66.66 0 0 1-.448-.254c-.117-.146-.173-.346-.173-.6 0-.562.346-.842 1.039-.842.664 0 1.195.195 1.593.583.399.388.605.908.619 1.558.019 1.051.033 1.715.043 1.991.01.275.043.53.102.763.059.233.16.424.304.573.144.148.385.33.724.54.274.175.41.436.41.785 0 .241-.047.416-.141.526-.095.112-.252.237-.477.375-.223.139-.406.29-.544.45-.14.16-.244.398-.315.714-.028.127-.05.407-.063.84-.014.434-.03 1.008-.043 1.726a2.315 2.315 0 0 1-.283 1.127 1.892 1.892 0 0 1-.781.76c-.337.18-.719.269-1.148.269-.693 0-1.039-.285-1.039-.856 0-.245.057-.443.176-.594a.661.661 0 0 1 .445-.262c.217-.031.37-.066.46-.102a.472.472 0 0 0 .23-.226c.064-.115.105-.285.126-.506.022-.22.033-.564.033-1.03 0-.624.038-1.133.113-1.532.074-.398.208-.726.395-.982.189-.258.45-.49.784-.697-.352-.221-.621-.469-.809-.742M418.628 102.739h-5.948a1.02 1.02 0 1 1 0-2.04h5.948a1.02 1.02 0 0 1 0 2.04M424.124 102.739h-1.643a1.02 1.02 0 1 1 0-2.04h1.643a1.02 1.02 0 0 1 0 2.04M429.252 102.739h-1.644a1.02 1.02 0 1 1 0-2.04h1.644a1.02 1.02 0 0 1 0 2.04M416.674 107.472h-2.38a1.02 1.02 0 1 1 0-2.04h2.38a1.02 1.02 0 0 1 0 2.04M428.176 107.472h-7.65a1.02 1.02 0 1 1 0-2.04h7.65a1.02 1.02 0 0 1 0 2.04" fill="#FFF" mask="url(#b)"/><path d="M388.633 166.905h-29.885a5.17 5.17 0 0 1-5.17-5.169v-32.064a5.17 5.17 0 0 1 5.17-5.17h29.885a5.17 5.17 0 0 1 5.169 5.17v32.064a5.17 5.17 0 0 1-5.17 5.17" fill="#1789CA" mask="url(#b)"/><path d="M368.68 150.79h-5.656a.97.97 0 0 1 0-1.94h5.656a.97.97 0 0 1 0 1.94M373.906 150.79h-1.563a.97.97 0 0 1 0-1.94h1.563a.97.97 0 0 1 0 1.94M383.494 150.79h-5.817a.97.97 0 1 1 0-1.94h5.817a.97.97 0 0 1 0 1.94M368.68 159.005h-5.656a.97.97 0 0 1 0-1.939h5.656a.97.97 0 0 1 0 1.94M373.906 159.005h-1.563a.97.97 0 0 1 0-1.939h1.563a.97.97 0 0 1 0 1.94M383.764 159.005h-5.818a.97.97 0 0 1 0-1.939h5.818a.97.97 0 0 1 0 1.94M366.822 154.966h-2.263a.97.97 0 0 1 0-1.94h2.263a.97.97 0 0 1 0 1.94M377.758 154.966h-7.273a.97.97 0 0 1 0-1.94h7.273a.97.97 0 0 1 0 1.94M381.636 154.966h-.431a.969.969 0 0 1-.969-.971c0-.535.433-.97.969-.97h.431a.97.97 0 0 1 0 1.94M370.512 144.254a.862.862 0 0 1-.792-1.2l4.83-11.277a.862.862 0 1 1 1.584.678l-4.83 11.276a.86.86 0 0 1-.792.523M367.388 144.309a.865.865 0 0 1-.61-.252l-6.067-6.07 6.48-6.481a.862.862 0 1 1 1.22 1.22l-5.264 5.262 4.85 4.85a.864.864 0 0 1-.61 1.47M380.406 144.309a.862.862 0 0 1-.61-1.471l4.851-4.85-5.264-5.263a.864.864 0 0 1 0-1.219.864.864 0 0 1 1.22 0l6.48 6.482-6.068 6.069a.866.866 0 0 1-.61.252" fill="#FFF" mask="url(#b)"/><path d="M344.534 56.617a1.598 1.598 0 1 1-3.196 0 1.598 1.598 0 0 1 3.196 0M460.676 193.71v15.6a7.83 7.83 0 0 1-7.829 7.83H232.574a7.83 7.83 0 0 1-7.83-7.83v-15.6" fill="#A0D1EA" mask="url(#b)"/><path d="M271.054 199.98a6.604 6.604 0 0 1-13.206 0 6.604 6.604 0 0 1 13.206 0" fill="#374460" mask="url(#b)"/><path fill="#E9F2FA" mask="url(#b)" d="M270.642 95.435h19.809v-3.302h-19.81zM250.832 106.44h19.81v-4.403h-19.81zM272.843 139.454h19.809v-3.302h-19.81zM250.832 128.449h19.81v-4.402h-19.81zM250.832 140.554h19.81v-4.402h-19.81zM229.923 175.77h19.809v-4.402h-19.81zM250.832 162.564h19.81v-3.302h-19.81zM254.134 175.77h41.82v-4.402h-41.82z"/><path fill="#00518B" mask="url(#b)" d="M288.219 320.54l64.65.225 1.005-25.42-64.469-4.806z"/><path fill="#F7A894" mask="url(#b)" d="M346.096 218.818l-85.006 16.641 1.26 13.087 4.464.001 6.594-.002 75.553.022z"/><path fill="#F7A894" mask="url(#b)" d="M262.346 248.542l-1.261-13.087 5.725-1.12v14.208zM285.004 146.831h-36.511v-39.987c0-12.163 9.86-22.024 22.023-22.024 11.75 0 22.43 9.225 22.998 20.96l1.48 30.567c.276 5.706-4.277 10.484-9.99 10.484"/><path d="M294.994 136.35c.28 5.701-4.281 10.48-9.992 10.48h-36.507v-39.985c0-12.161 9.862-22.023 22.025-22.023 5.87 0 12.232 2.31 16.182 6.081 3.96 3.77 6.53 9.012 6.81 14.872l1.482 30.575z" fill="#F7A894" mask="url(#b)"/><path d="M299.527 87.712v11.891c0 .92-.11 1.81-.33 2.661h-22.374V75.71h10.703c6.63 0 12 5.37 12 12.002M257.494 81.06h2.997v37.651H237.49v-17.648c0-11.048 8.957-20.004 20.004-20.004" fill="#00518B" mask="url(#b)"/><path d="M296.655 99.715h-23.783c-9.286 0-16.84-7.554-16.84-16.84a8.001 8.001 0 0 1 16.003 0c0 .461.375.838.837.838h23.783v16.002z" fill="#00518B" mask="url(#b)"/><path d="M288.154 91.713H275.82a8.001 8.001 0 0 1 0-16.002h12.335a8.002 8.002 0 1 1 0 16.002" fill="#00518B" mask="url(#b)"/><path d="M306.024 96.216c0 6.662-5.4 12.063-12.064 12.063-6.663 0-12.956-5.401-12.956-12.063 0-6.664 6.293-12.064 12.956-12.064 6.663 0 12.064 5.4 12.064 12.064" fill="#00518B" mask="url(#b)"/><path fill="#00518B" mask="url(#b)" d="M255.056 105.931h33.34V93.43h-33.34z"/><path fill="#00518B" mask="url(#b)" d="M256.015 121.71h25.754v-15.945h-25.754z"/><path d="M265.58 136.667h-14.415c-7.552 0-13.675-6.122-13.675-13.676v-7.282h38.278v10.77c0 5.626-4.561 10.188-10.188 10.188" fill="#00518B" mask="url(#b)"/><path d="M262.25 178.418c-7.596 0-13.756-6.159-13.756-13.756v-27.995h27.513v27.995c0 7.597-6.159 13.756-13.757 13.756M281.77 127.711h6V115.71h-6a6 6 0 1 0 0 12.001" fill="#F7A894" mask="url(#b)"/><path d="M290.688 101.358h-14.92v14.352h6.914a8.008 8.008 0 0 0 8.006-8.007v-6.345z" fill="#00518B" mask="url(#b)"/><path d="M248.494 164.662c0 7.597 6.16 13.756 13.756 13.756 7.598 0 13.757-6.159 13.757-13.756 0-7.596-6.159-13.756-13.757-13.756-7.596 0-13.756 6.16-13.756 13.756" fill="#F7A894" mask="url(#b)"/><path d="M340.187 308.038c0 7.03 5.7 12.726 12.727 12.726 7.03 0 12.728-5.697 12.728-12.726 0-7.03-5.698-12.727-12.728-12.727-7.028 0-12.727 5.697-12.727 12.727" fill="#00518B" mask="url(#b)"/><path fill="#00518B" mask="url(#b)" d="M329.28 446.215l10.936-138.905 25.377 1.993-17.783 136.912z"/><path d="M357.127 457.196h-27.932l.085-11.032 18.503.027 10.666 5.818a2.763 2.763 0 0 1-1.322 5.187" fill="#0884C6" mask="url(#b)"/><path d="M275.043 445.961a9.287 9.287 0 0 0 9.287 9.287 9.287 9.287 0 1 0 0-18.574 9.287 9.287 0 0 0-9.287 9.287M286.035 305.837c0 7.03 5.698 12.726 12.726 12.726 7.03 0 12.729-5.697 12.729-12.726 0-7.03-5.699-12.727-12.729-12.727-7.028 0-12.726 5.698-12.726 12.727" fill="#00518B" mask="url(#b)"/><path fill="#00518B" mask="url(#b)" d="M275.059 445.234l11.005-140.124 25.376 1.992-17.863 139.587z"/><path d="M302.898 457.196h-27.932v-11.005h18.588l10.666 5.818a2.763 2.763 0 0 1-1.322 5.187M286.319 292.546h-14.374M221.38 290.345l-48.357 166.621h-5.558l39.541-166.621z" fill="#0884C6" mask="url(#b)"/><path d="M223.77 290.502a39.866 39.866 0 0 0 2.916 15.021h74.417a39.888 39.888 0 0 0 2.916-15.021c0-22.164-17.96-40.124-40.124-40.124-22.154 0-40.125 17.96-40.125 40.124" fill="#FFF" mask="url(#b)"/><path d="M252.894 290.502c0 6.078 4.927 11.004 11.005 11.004 6.077 0 11.005-4.926 11.005-11.004 0-6.077-4.928-11.005-11.005-11.005-6.078 0-11.005 4.928-11.005 11.005" fill="#1789CA" mask="url(#b)"/><path d="M166.435 242.027c-4.718-6.816-3.016-16.167 3.8-20.886 6.817-4.719 16.169-3.018 20.888 3.8 4.718 6.816 3.016 16.167-3.801 20.886-6.817 4.718-16.168 3.016-20.887-3.8" fill="#F7A894" mask="url(#b)"/><path fill="#F7A894" mask="url(#b)" d="M246.642 204.77l-59.32 41.057-19.313-22.804 50.316-51.69z"/><path d="M216.018 199.198c6.918 9.995 20.63 12.49 30.624 5.571 9.995-6.917 12.49-20.628 5.572-30.624-6.918-9.995-20.63-12.488-30.625-5.57-9.995 6.917-12.489 20.628-5.57 30.623" fill="#0884C6" mask="url(#b)"/><path d="M239.024 248.745a8.805 8.805 0 1 1 17.281-3.382 8.805 8.805 0 0 1-17.281 3.382" fill="#F7A894" mask="url(#b)"/><path d="M255.87 243.204a6.603 6.603 0 0 0 7.748 5.21 6.603 6.603 0 1 0-7.749-5.21" fill="#F7A894" mask="url(#b)"/><path fill="#F7A894" mask="url(#b)" d="M251.714 254.873l13.674-7.073-4.307-12.345-15.109 2.959zM334.242 236.429c1.593 8.137 9.48 13.44 17.616 11.848 8.136-1.594 13.442-9.481 11.847-17.616-1.592-8.137-9.478-13.44-17.615-11.847-8.136 1.592-13.44 9.478-11.848 17.615"/><path fill="#F7A894" mask="url(#b)" d="M281.143 204.756l59.274 41.122 19.34-22.782-50.26-51.744z"/><path fill="#0884C6" mask="url(#b)" d="M246.642 204.77l-49.253 34.09-20.84-24.617 41.77-42.91zM311.773 199.218c-6.93 9.987-20.643 12.466-30.63 5.537-9.987-6.93-12.467-20.642-5.538-30.63 6.929-9.986 20.643-12.465 30.63-5.537 9.988 6.93 12.467 20.643 5.538 30.63"/><path d="M288.272 320.54c8.296 0 15.021-6.725 15.021-15.02 0-8.297-6.725-15.023-15.02-15.023-8.297 0-15.022 6.726-15.022 15.023 0 8.295 6.725 15.02 15.021 15.02M224.518 305.524c0 8.295 6.725 15.02 15.021 15.02 8.297 0 15.023-6.725 15.023-15.02 0-8.297-6.726-15.022-15.023-15.022-8.296 0-15.02 6.725-15.02 15.022" fill="#FFF" mask="url(#b)"/><path d="M218.393 180.823l5.382 109.679h80.249l5.38-109.679c.432-8.793-6.583-16.161-15.388-16.161h-60.234c-8.807 0-15.821 7.368-15.389 16.161" fill="#0884C6" mask="url(#b)"/><path d="M223.774 290.502l.738 15.021.035.736c.394 8.002 6.995 14.286 15.004 14.286h48.695c8.009 0 14.611-6.285 15.004-14.286l.036-.736.738-15.021h-80.25z" fill="#FFF" mask="url(#b)"/><path d="M328.1 268.779c0 44.975-36.46 81.435-81.437 81.435s-81.438-36.46-81.438-81.435 36.461-81.435 81.438-81.435c44.976 0 81.437 36.46 81.437 81.435" fill="#374460" mask="url(#b)"/><path d="M259.869 217.515h-26.412a5.502 5.502 0 0 1-5.503-5.502 5.502 5.502 0 0 1 5.503-5.502h26.412a5.502 5.502 0 0 1 5.502 5.502 5.502 5.502 0 0 1-5.502 5.502M271.945 292.546l47.994 164.75h5.556l-39.176-164.75zM281.14 204.754l49.215 34.143 20.868-24.592-41.722-42.955z" fill="#0884C6" mask="url(#b)"/><path d="M328.1 268.779c0 44.975-36.46 81.435-81.437 81.435s-81.438-36.46-81.438-81.435 36.461-81.435 81.438-81.435c44.976 0 81.437 36.46 81.437 81.435" fill="#374460" mask="url(#b)"/><path d="M259.869 217.515h-26.412a5.502 5.502 0 0 1-5.503-5.502 5.502 5.502 0 0 1 5.503-5.502h26.412a5.502 5.502 0 0 1 5.502 5.502 5.502 5.502 0 0 1-5.502 5.502" fill="#0884C6" mask="url(#b)"/><path d="M293.81 123.823c0 6.53-5.294 11.823-11.823 11.823-6.53 0-11.823-5.293-11.823-11.823 0-6.529 5.292-11.822 11.823-11.822 6.529 0 11.822 5.293 11.822 11.822" fill="#FFF" mask="url(#b)"/><path d="M290.652 123.823a8.665 8.665 0 0 1-8.666 8.665 8.665 8.665 0 0 1-8.665-8.665 8.665 8.665 0 0 1 8.665-8.665 8.665 8.665 0 0 1 8.666 8.665" fill="#D4EBF4" mask="url(#b)"/><path d="M243.934 92.744c1.668-8.26 6.129-14.39 12.366-15.69 9.98-2.08 20.73 9 24.011 24.745.87 4.174 1.505 8.138 1.51 11.832" stroke="#FFF" stroke-width="4.4" mask="url(#b)"/><path d="M257.494 81.06h2.997v37.651H237.49v-17.648c0-11.048 8.957-20.004 20.004-20.004" fill="#00518B" mask="url(#b)"/><path d="M756.76 224.377a8.428 8.428 0 1 1-16.856-.001 8.428 8.428 0 0 1 16.856.001z" stroke="#0085C7" stroke-width="3.3" mask="url(#b)"/><path d="M759.981 245.595h12.592c4.73 0 8.679-3.836 9.102-8.845l2.356-27.956a1.963 1.963 0 0 0-1.956-2.127H750.48a1.962 1.962 0 0 0-1.956 2.127l2.356 27.956c.423 5.009 4.37 8.845 9.101 8.845" fill="#0085C7" mask="url(#b)"/></g><g transform="translate(76.935 129.391)"><mask id="d" fill="#fff"><use xlink:href="#c"/></mask><path fill="#A0D1EA" mask="url(#d)" d="M-5.476 100.923H74.37V-4.88H-5.476z"/></g><g transform="translate(84.74 205.324)"><mask id="f" fill="#fff"><use xlink:href="#e"/></mask><path fill="#0085C7" mask="url(#f)" d="M-5.21 45.23h60.541V-5.19h-60.54z"/></g><path fill="#FFF" d="M85.035 213.729h49.533v-2.048H85.035z"/></g></svg>