<svg version="1.1" id="Layer_1" xmlns="http://www.w3.org/2000/svg" xmlns:xlink="http://www.w3.org/1999/xlink" x="0" y="0" viewBox="0 0 1024 1024" xml:space="preserve"><style>.st0{fill:#fff}</style><circle id="SVGID_4_" class="st0" cx="512" cy="512" r="490.1"/><defs><circle id="SVGID_1_" cx="512" cy="512" r="490.1"/></defs><clipPath id="SVGID_2_"><use xlink:href="#SVGID_1_" overflow="visible"/></clipPath><g clip-path="url(#SVGID_2_)"><path d="M611.5 347.8s27.8-41.7 47.9-3c20.1 38.6 4.7 68 9.2 95.7 4.6 27.7-4.7 81.8-20.1 86.5 0 0 7.7 81.8 69.5 149.8l24.7-7.7 30.9 21.6s139.1 40.2 157.5 58.7V1083h-783s51-108.1 129.7-180.7 83.4-64.9 88-61.8c0 0 4.7-21.6-17-26.3-21.6-4.7-44.8-9.2-77.3-49.4S199 704.6 177.4 635c-20.1-47.9-35.5-86.5-35.5-137.4 0 0 4.7-10.9-6.2-40.2-1.5-24.7-4.7-40.2-4.7-40.2s-12.4-47.9-10.9-66.4c1.5-18.6-10.9-38.6 23.1-112.8 41.7-72.6 105.1-112.8 105.1-112.8s105.1-85 239.5-9.2c34 18.6 71.1 40.2 88 97.4 26.3 55.6 32.5 111.3 35.5 131.3"/><path d="M748.2 666.6s-54.9 18.8-58.1 28.2c-3 9.4-42.3 72.2-54.8 106.7-12.6 34.5-63.5 102.7-74.5 115.3-11 12.6-54.9 72.2-108.2 70.6-26.7-3.1-23.6-14.1-20.4-31.4l-69-122.3s-75.3 56.4-87.8 67.4c-12.6 11-34.5 26.7-72.2 80S142 1087.8 142 1087.8l795.3-1.5V747.4s-116-54.9-161.6-58.1l-27.5-22.7z" fill="#1c64f2"/><path d="M615.3 436.6s12.4 15.4 0 32.5c0 0-15.4 12.4 9.2 6.2l-1.5 57.2h3s6.2 55.6-3 80.3-16.2 42.4-36.3 71.9c-20.1 29.3-35.5 57.2-37.1 72.6-4.7 17-12.4 41.7-12.4 41.7s-20 46.3-26.2 57c-6.2 10.9-26.3 47.9-26.3 55.6s-6.2 43.2-12.4 58.7h-4.5l-7.7 20.1h1.5s-26.3 43.2-15.4 92.7h4.7s-6.2-49.4 15.4-88h12.4l9.2-23.1-10.9-1.5s7.7-15.4 17-60.2l41.7-89.6s17-34 21.6-64.9 37.1-69.5 37.1-69.5 38.6-55.6 40.2-97.4c1.5-41.7 0-57.2 0-57.2h3s10.9-88-7.7-89.6c.1-.1-18.4-21.8-14.6-5.5z" fill="#7a7a7a"/><path class="st0" d="M199.7 689.3s-3.8 70.8 11.7 106.3 27.8 75.7 27.8 88c0 12.4 1.5 24.7 1.5 24.7v29.3l13.9-15.3-6.2-18.6s-7.7-66.4-30.9-112.8-.1-84.3-17.8-101.6z"/></g><g><circle id="SVGID_3_" cx="512" cy="512" r="490.1" fill="none" stroke="#4d4d4d" stroke-width="4" stroke-miterlimit="10"/></g></svg>